<mxfile host="app.diagrams.net" modified="2023-12-17T11:09:05.413Z" agent="Mozilla/5.0 (Windows NT 10.0; Win64; x64; rv:120.0) Gecko/20100101 Firefox/120.0" etag="BakCuAzdDe8-steEkTLJ" version="22.1.11" type="device">
  <diagram name="Page-1" id="wgAyOXhD21uO2ZQ7kcxS">
    <mxGraphModel dx="1434" dy="774" grid="1" gridSize="10" guides="1" tooltips="1" connect="1" arrows="1" fold="1" page="1" pageScale="1" pageWidth="827" pageHeight="1169" math="0" shadow="0">
      <root>
        <mxCell id="0" />
        <mxCell id="1" parent="0" />
        <mxCell id="DDpZl7pPW4HvFg3pGDi8-1" value="&lt;code&gt;&lt;span class=&quot;hljs-title.class&quot;&gt;WeatherAdapter&lt;/span&gt;&lt;span class=&quot;&quot;&gt; &lt;/span&gt;&lt;/code&gt;" style="swimlane;fontStyle=1;align=center;verticalAlign=top;childLayout=stackLayout;horizontal=1;startSize=26;horizontalStack=0;resizeParent=1;resizeParentMax=0;resizeLast=0;collapsible=1;marginBottom=0;whiteSpace=wrap;html=1;" parent="1" vertex="1">
          <mxGeometry x="210" y="300" width="160" height="180" as="geometry" />
        </mxCell>
        <mxCell id="DDpZl7pPW4HvFg3pGDi8-2" value="- &lt;code&gt; Weather: weather&lt;/code&gt;" style="text;strokeColor=none;fillColor=none;align=left;verticalAlign=top;spacingLeft=4;spacingRight=4;overflow=hidden;rotatable=0;points=[[0,0.5],[1,0.5]];portConstraint=eastwest;whiteSpace=wrap;html=1;" parent="DDpZl7pPW4HvFg3pGDi8-1" vertex="1">
          <mxGeometry y="26" width="160" height="26" as="geometry" />
        </mxCell>
        <mxCell id="DDpZl7pPW4HvFg3pGDi8-3" value="" style="line;strokeWidth=1;fillColor=none;align=left;verticalAlign=middle;spacingTop=-1;spacingLeft=3;spacingRight=3;rotatable=0;labelPosition=right;points=[];portConstraint=eastwest;strokeColor=inherit;" parent="DDpZl7pPW4HvFg3pGDi8-1" vertex="1">
          <mxGeometry y="52" width="160" height="8" as="geometry" />
        </mxCell>
        <mxCell id="DDpZl7pPW4HvFg3pGDi8-4" value="&lt;div&gt;+ &lt;code&gt; &lt;span class=&quot;hljs-title.function&quot;&gt;getResults&lt;/span&gt;&lt;span class=&quot;hljs-params&quot;&gt;():&lt;/span&gt;&lt;/code&gt;&lt;/div&gt;&lt;div&gt;&lt;code&gt;&lt;span class=&quot;hljs-params&quot;&gt;Map&amp;lt;DataType, String&amp;gt;&lt;br&gt;&lt;/span&gt;&lt;/code&gt;&lt;/div&gt;" style="text;strokeColor=none;fillColor=none;align=left;verticalAlign=top;spacingLeft=4;spacingRight=4;overflow=hidden;rotatable=0;points=[[0,0.5],[1,0.5]];portConstraint=eastwest;whiteSpace=wrap;html=1;" parent="DDpZl7pPW4HvFg3pGDi8-1" vertex="1">
          <mxGeometry y="60" width="160" height="120" as="geometry" />
        </mxCell>
        <mxCell id="DDpZl7pPW4HvFg3pGDi8-5" value="&lt;code&gt;&lt;span class=&quot;hljs-title.class&quot;&gt;Weather&lt;/span&gt;&lt;span class=&quot;&quot;&gt; &lt;/span&gt;&lt;/code&gt;" style="swimlane;fontStyle=1;align=center;verticalAlign=top;childLayout=stackLayout;horizontal=1;startSize=26;horizontalStack=0;resizeParent=1;resizeParentMax=0;resizeLast=0;collapsible=1;marginBottom=0;whiteSpace=wrap;html=1;" parent="1" vertex="1">
          <mxGeometry x="460" y="300" width="170" height="180" as="geometry" />
        </mxCell>
        <mxCell id="DDpZl7pPW4HvFg3pGDi8-6" value="- &lt;code&gt; Weather: weather&lt;/code&gt;" style="text;strokeColor=none;fillColor=none;align=left;verticalAlign=top;spacingLeft=4;spacingRight=4;overflow=hidden;rotatable=0;points=[[0,0.5],[1,0.5]];portConstraint=eastwest;whiteSpace=wrap;html=1;" parent="DDpZl7pPW4HvFg3pGDi8-5" vertex="1">
          <mxGeometry y="26" width="170" height="26" as="geometry" />
        </mxCell>
        <mxCell id="DDpZl7pPW4HvFg3pGDi8-7" value="" style="line;strokeWidth=1;fillColor=none;align=left;verticalAlign=middle;spacingTop=-1;spacingLeft=3;spacingRight=3;rotatable=0;labelPosition=right;points=[];portConstraint=eastwest;strokeColor=inherit;" parent="DDpZl7pPW4HvFg3pGDi8-5" vertex="1">
          <mxGeometry y="52" width="170" height="8" as="geometry" />
        </mxCell>
        <mxCell id="DDpZl7pPW4HvFg3pGDi8-8" value="&lt;div&gt;+ &lt;code&gt; &lt;/code&gt;&lt;code&gt;&lt;span class=&quot;hljs-title.function&quot;&gt;getWeather&lt;/span&gt;&lt;span class=&quot;hljs-params&quot;&gt;&lt;/span&gt;&lt;/code&gt;&lt;code&gt;&lt;span class=&quot;hljs-params&quot;&gt;(): &lt;/span&gt;&lt;/code&gt;&lt;code&gt;Weather&lt;span class=&quot;&quot;&gt; &lt;/span&gt;&lt;/code&gt;&lt;/div&gt;&lt;div&gt;&lt;code&gt;&lt;span class=&quot;hljs-params&quot;&gt;&lt;br&gt;&lt;/span&gt;&lt;/code&gt;&lt;/div&gt;&lt;div&gt;&lt;code&gt;&lt;span class=&quot;hljs-params&quot;&gt;&lt;/span&gt;&lt;/code&gt;+&lt;code&gt;&lt;span class=&quot;hljs-title.function&quot;&gt;parseData&lt;/span&gt;&lt;span class=&quot;hljs-params&quot;&gt;&lt;span class=&quot;hljs-params&quot;&gt;&lt;/span&gt;&lt;/span&gt;&lt;/code&gt;&lt;code&gt;&lt;span class=&quot;hljs-params&quot;&gt;&lt;span class=&quot;hljs-params&quot;&gt;(&lt;/span&gt;&lt;/span&gt;&lt;/code&gt;&lt;code&gt;String jsonResponse): &lt;/code&gt;&lt;code&gt;WeatherData&lt;/code&gt;&lt;code&gt;&lt;span class=&quot;hljs-params&quot;&gt;&lt;/span&gt;&lt;span class=&quot;&quot;&gt;&lt;/span&gt;&lt;/code&gt;&lt;/div&gt;" style="text;strokeColor=none;fillColor=none;align=left;verticalAlign=top;spacingLeft=4;spacingRight=4;overflow=hidden;rotatable=0;points=[[0,0.5],[1,0.5]];portConstraint=eastwest;whiteSpace=wrap;html=1;" parent="DDpZl7pPW4HvFg3pGDi8-5" vertex="1">
          <mxGeometry y="60" width="170" height="120" as="geometry" />
        </mxCell>
        <mxCell id="DDpZl7pPW4HvFg3pGDi8-9" value="" style="endArrow=open;endFill=1;endSize=12;html=1;rounded=0;exitX=1.013;exitY=0.342;exitDx=0;exitDy=0;exitPerimeter=0;" parent="1" source="DDpZl7pPW4HvFg3pGDi8-4" edge="1">
          <mxGeometry width="160" relative="1" as="geometry">
            <mxPoint x="380" y="400" as="sourcePoint" />
            <mxPoint x="460" y="400" as="targetPoint" />
          </mxGeometry>
        </mxCell>
        <mxCell id="DDpZl7pPW4HvFg3pGDi8-10" value="WeatherData" style="swimlane;fontStyle=1;align=center;verticalAlign=top;childLayout=stackLayout;horizontal=1;startSize=26;horizontalStack=0;resizeParent=1;resizeParentMax=0;resizeLast=0;collapsible=1;marginBottom=0;whiteSpace=wrap;html=1;" parent="1" vertex="1">
          <mxGeometry x="210" y="500" width="130" height="140" as="geometry" />
        </mxCell>
        <mxCell id="DDpZl7pPW4HvFg3pGDi8-11" value="&lt;div&gt;- temperature: double&lt;/div&gt;&lt;div&gt;- winspeed: double&lt;br&gt;&lt;/div&gt;&lt;div&gt;- humidity: int&lt;br&gt;&lt;/div&gt;&lt;div&gt;- date: String&lt;br&gt;&lt;/div&gt;" style="text;strokeColor=none;fillColor=none;align=left;verticalAlign=top;spacingLeft=4;spacingRight=4;overflow=hidden;rotatable=0;points=[[0,0.5],[1,0.5]];portConstraint=eastwest;whiteSpace=wrap;html=1;" parent="DDpZl7pPW4HvFg3pGDi8-10" vertex="1">
          <mxGeometry y="26" width="130" height="74" as="geometry" />
        </mxCell>
        <mxCell id="DDpZl7pPW4HvFg3pGDi8-12" value="" style="line;strokeWidth=1;fillColor=none;align=left;verticalAlign=middle;spacingTop=-1;spacingLeft=3;spacingRight=3;rotatable=0;labelPosition=right;points=[];portConstraint=eastwest;strokeColor=inherit;" parent="DDpZl7pPW4HvFg3pGDi8-10" vertex="1">
          <mxGeometry y="100" width="130" height="8" as="geometry" />
        </mxCell>
        <mxCell id="DDpZl7pPW4HvFg3pGDi8-13" value="+ get and set" style="text;strokeColor=none;fillColor=none;align=left;verticalAlign=top;spacingLeft=4;spacingRight=4;overflow=hidden;rotatable=0;points=[[0,0.5],[1,0.5]];portConstraint=eastwest;whiteSpace=wrap;html=1;" parent="DDpZl7pPW4HvFg3pGDi8-10" vertex="1">
          <mxGeometry y="108" width="130" height="32" as="geometry" />
        </mxCell>
        <mxCell id="DDpZl7pPW4HvFg3pGDi8-14" value="DataApplication" style="swimlane;fontStyle=1;align=center;verticalAlign=top;childLayout=stackLayout;horizontal=1;startSize=26;horizontalStack=0;resizeParent=1;resizeParentMax=0;resizeLast=0;collapsible=1;marginBottom=0;whiteSpace=wrap;html=1;" parent="1" vertex="1">
          <mxGeometry x="210" y="200" width="160" height="34" as="geometry" />
        </mxCell>
        <mxCell id="DDpZl7pPW4HvFg3pGDi8-16" value="" style="line;strokeWidth=1;fillColor=none;align=left;verticalAlign=middle;spacingTop=-1;spacingLeft=3;spacingRight=3;rotatable=0;labelPosition=right;points=[];portConstraint=eastwest;strokeColor=inherit;" parent="DDpZl7pPW4HvFg3pGDi8-14" vertex="1">
          <mxGeometry y="26" width="160" height="8" as="geometry" />
        </mxCell>
        <mxCell id="DDpZl7pPW4HvFg3pGDi8-18" value="" style="endArrow=open;endFill=1;endSize=12;html=1;rounded=0;exitX=0.438;exitY=1.75;exitDx=0;exitDy=0;exitPerimeter=0;entryX=0.431;entryY=-0.017;entryDx=0;entryDy=0;entryPerimeter=0;" parent="1" source="DDpZl7pPW4HvFg3pGDi8-16" target="DDpZl7pPW4HvFg3pGDi8-1" edge="1">
          <mxGeometry width="160" relative="1" as="geometry">
            <mxPoint x="200" y="200" as="sourcePoint" />
            <mxPoint x="260" y="290" as="targetPoint" />
          </mxGeometry>
        </mxCell>
      </root>
    </mxGraphModel>
  </diagram>
</mxfile>
